<svg xmlns="http://www.w3.org/2000/svg" width="800" height="500" viewBox="0 0 800 500"><rect width="800" height="500" fill="#1e2548"/><circle cx="650" cy="90" r="36" fill="#f2f0d8"/><rect x="40" y="220" width="90" height="280" fill="#343d6e"/><rect x="52" y="240" width="14" height="18" fill="#f7d774"/><rect x="78" y="240" width="14" height="18" fill="#f7d774"/><rect x="104" y="240" width="14" height="18" fill="#4a548c"/><rect x="52" y="280" width="14" height="18" fill="#f7d774"/><rect x="78" y="280" width="14" height="18" fill="#4a548c"/><rect x="104" y="280" width="14" height="18" fill="#f7d774"/><rect x="52" y="320" width="14" height="18" fill="#4a548c"/><rect x="78" y="320" width="14" height="18" fill="#f7d774"/><rect x="104" y="320" width="14" height="18" fill="#f7d774"/><rect x="52" y="360" width="14" height="18" fill="#f7d774"/><rect x="78" y="360" width="14" height="18" fill="#f7d774"/><rect x="104" y="360" width="14" height="18" fill="#4a548c"/><rect x="52" y="400" width="14" height="18" fill="#f7d774"/><rect x="78" y="400" width="14" height="18" fill="#4a548c"/><rect x="104" y="400" width="14" height="18" fill="#f7d774"/><rect x="140" y="160" width="90" height="340" fill="#343d6e"/><rect x="152" y="180" width="14" height="18" fill="#f7d774"/><rect x="178" y="180" width="14" height="18" fill="#4a548c"/><rect x="204" y="180" width="14" height="18" fill="#f7d774"/><rect x="152" y="220" width="14" height="18" fill="#4a548c"/><rect x="178" y="220" width="14" height="18" fill="#f7d774"/><rect x="204" y="220" width="14" height="18" fill="#f7d774"/><rect x="152" y="260" width="14" height="18" fill="#f7d774"/><rect x="178" y="260" width="14" height="18" fill="#f7d774"/><rect x="204" y="260" width="14" height="18" fill="#4a548c"/><rect x="152" y="300" width="14" height="18" fill="#f7d774"/><rect x="178" y="300" width="14" height="18" fill="#4a548c"/><rect x="204" y="300" width="14" height="18" fill="#f7d774"/><rect x="152" y="340" width="14" height="18" fill="#4a548c"/><rect x="178" y="340" width="14" height="18" fill="#f7d774"/><rect x="204" y="340" width="14" height="18" fill="#f7d774"/><rect x="152" y="380" width="14" height="18" fill="#f7d774"/><rect x="178" y="380" width="14" height="18" fill="#f7d774"/><rect x="204" y="380" width="14" height="18" fill="#4a548c"/><rect x="152" y="420" width="14" height="18" fill="#f7d774"/><rect x="178" y="420" width="14" height="18" fill="#4a548c"/><rect x="204" y="420" width="14" height="18" fill="#f7d774"/><rect x="240" y="260" width="90" height="240" fill="#343d6e"/><rect x="252" y="280" width="14" height="18" fill="#4a548c"/><rect x="278" y="280" width="14" height="18" fill="#f7d774"/><rect x="304" y="280" width="14" height="18" fill="#f7d774"/><rect x="252" y="320" width="14" height="18" fill="#f7d774"/><rect x="278" y="320" width="14" height="18" fill="#f7d774"/><rect x="304" y="320" width="14" height="18" fill="#4a548c"/><rect x="252" y="360" width="14" height="18" fill="#f7d774"/><rect x="278" y="360" width="14" height="18" fill="#4a548c"/><rect x="304" y="360" width="14" height="18" fill="#f7d774"/><rect x="252" y="400" width="14" height="18" fill="#4a548c"/><rect x="278" y="400" width="14" height="18" fill="#f7d774"/><rect x="304" y="400" width="14" height="18" fill="#f7d774"/><rect x="330" y="120" width="90" height="380" fill="#343d6e"/><rect x="342" y="140" width="14" height="18" fill="#4a548c"/><rect x="368" y="140" width="14" height="18" fill="#f7d774"/><rect x="394" y="140" width="14" height="18" fill="#f7d774"/><rect x="342" y="180" width="14" height="18" fill="#f7d774"/><rect x="368" y="180" width="14" height="18" fill="#f7d774"/><rect x="394" y="180" width="14" height="18" fill="#4a548c"/><rect x="342" y="220" width="14" height="18" fill="#f7d774"/><rect x="368" y="220" width="14" height="18" fill="#4a548c"/><rect x="394" y="220" width="14" height="18" fill="#f7d774"/><rect x="342" y="260" width="14" height="18" fill="#4a548c"/><rect x="368" y="260" width="14" height="18" fill="#f7d774"/><rect x="394" y="260" width="14" height="18" fill="#f7d774"/><rect x="342" y="300" width="14" height="18" fill="#f7d774"/><rect x="368" y="300" width="14" height="18" fill="#f7d774"/><rect x="394" y="300" width="14" height="18" fill="#4a548c"/><rect x="342" y="340" width="14" height="18" fill="#f7d774"/><rect x="368" y="340" width="14" height="18" fill="#4a548c"/><rect x="394" y="340" width="14" height="18" fill="#f7d774"/><rect x="342" y="380" width="14" height="18" fill="#4a548c"/><rect x="368" y="380" width="14" height="18" fill="#f7d774"/><rect x="394" y="380" width="14" height="18" fill="#f7d774"/><rect x="342" y="420" width="14" height="18" fill="#f7d774"/><rect x="368" y="420" width="14" height="18" fill="#f7d774"/><rect x="394" y="420" width="14" height="18" fill="#4a548c"/><rect x="450" y="200" width="90" height="300" fill="#343d6e"/><rect x="462" y="220" width="14" height="18" fill="#4a548c"/><rect x="488" y="220" width="14" height="18" fill="#f7d774"/><rect x="514" y="220" width="14" height="18" fill="#f7d774"/><rect x="462" y="260" width="14" height="18" fill="#f7d774"/><rect x="488" y="260" width="14" height="18" fill="#f7d774"/><rect x="514" y="260" width="14" height="18" fill="#4a548c"/><rect x="462" y="300" width="14" height="18" fill="#f7d774"/><rect x="488" y="300" width="14" height="18" fill="#4a548c"/><rect x="514" y="300" width="14" height="18" fill="#f7d774"/><rect x="462" y="340" width="14" height="18" fill="#4a548c"/><rect x="488" y="340" width="14" height="18" fill="#f7d774"/><rect x="514" y="340" width="14" height="18" fill="#f7d774"/><rect x="462" y="380" width="14" height="18" fill="#f7d774"/><rect x="488" y="380" width="14" height="18" fill="#f7d774"/><rect x="514" y="380" width="14" height="18" fill="#4a548c"/><rect x="462" y="420" width="14" height="18" fill="#f7d774"/><rect x="488" y="420" width="14" height="18" fill="#4a548c"/><rect x="514" y="420" width="14" height="18" fill="#f7d774"/><rect x="560" y="150" width="90" height="350" fill="#343d6e"/><rect x="572" y="170" width="14" height="18" fill="#f7d774"/><rect x="598" y="170" width="14" height="18" fill="#4a548c"/><rect x="624" y="170" width="14" height="18" fill="#f7d774"/><rect x="572" y="210" width="14" height="18" fill="#4a548c"/><rect x="598" y="210" width="14" height="18" fill="#f7d774"/><rect x="624" y="210" width="14" height="18" fill="#f7d774"/><rect x="572" y="250" width="14" height="18" fill="#f7d774"/><rect x="598" y="250" width="14" height="18" fill="#f7d774"/><rect x="624" y="250" width="14" height="18" fill="#4a548c"/><rect x="572" y="290" width="14" height="18" fill="#f7d774"/><rect x="598" y="290" width="14" height="18" fill="#4a548c"/><rect x="624" y="290" width="14" height="18" fill="#f7d774"/><rect x="572" y="330" width="14" height="18" fill="#4a548c"/><rect x="598" y="330" width="14" height="18" fill="#f7d774"/><rect x="624" y="330" width="14" height="18" fill="#f7d774"/><rect x="572" y="370" width="14" height="18" fill="#f7d774"/><rect x="598" y="370" width="14" height="18" fill="#f7d774"/><rect x="624" y="370" width="14" height="18" fill="#4a548c"/><rect x="572" y="410" width="14" height="18" fill="#f7d774"/><rect x="598" y="410" width="14" height="18" fill="#4a548c"/><rect x="624" y="410" width="14" height="18" fill="#f7d774"/><rect x="670" y="240" width="90" height="260" fill="#343d6e"/><rect x="682" y="260" width="14" height="18" fill="#f7d774"/><rect x="708" y="260" width="14" height="18" fill="#f7d774"/><rect x="734" y="260" width="14" height="18" fill="#4a548c"/><rect x="682" y="300" width="14" height="18" fill="#f7d774"/><rect x="708" y="300" width="14" height="18" fill="#4a548c"/><rect x="734" y="300" width="14" height="18" fill="#f7d774"/><rect x="682" y="340" width="14" height="18" fill="#4a548c"/><rect x="708" y="340" width="14" height="18" fill="#f7d774"/><rect x="734" y="340" width="14" height="18" fill="#f7d774"/><rect x="682" y="380" width="14" height="18" fill="#f7d774"/><rect x="708" y="380" width="14" height="18" fill="#f7d774"/><rect x="734" y="380" width="14" height="18" fill="#4a548c"/><rect x="682" y="420" width="14" height="18" fill="#f7d774"/><rect x="708" y="420" width="14" height="18" fill="#4a548c"/><rect x="734" y="420" width="14" height="18" fill="#f7d774"/></svg>
